<svg xmlns="http://www.w3.org/2000/svg" viewBox="0 0 19 19" fill-rule="evenodd" clip-rule="evenodd" stroke-linejoin="round" stroke-miterlimit="1.414">
  <path fill="none" d="M0 0h19v19H0z"/>
  <clipPath id="a-logo">
    <path d="M0 0h19v19H0z"/>
  </clipPath>
  <g clip-path="url(#a-logo)">
    <path d="M17.236 19H1.764C.79 19 0 18.21 0 17.236V1.764C0 .79.79 0 1.764 0h15.472C18.21 0 19 .79 19 1.764v15.472C19 18.21 18.21 19 17.236 19zm-3.118-8.779v.021a5.5 5.5 0 0 1-.323 1.914 4.249 4.249 0 0 1-.936 1.505 4.142 4.142 0 0 1-1.462.965c-.567.224-1.205.336-1.914.336-.703 0-1.335-.114-1.896-.34a4.22 4.22 0 0 1-1.458-.974 4.21 4.21 0 0 1-.936-1.497 5.48 5.48 0 0 1-.319-1.909v-.021h2.33v.021c0 .607.092 1.137.277 1.59.184.454.448.801.791 1.042s.746.361 1.211.361c.703 0 1.263-.265 1.68-.795.416-.53.625-1.262.625-2.198v-.021h2.33zm-2.174-1.563c.607 0 1.078-.087 1.412-.26.334-.172.502-.551.502-1.135 0-.629-.162-1.247-.485-1.854-.176-.33-.4-.627-.672-.89l.407-.407a.852.852 0 1 0-1.205-1.205l-.695.695a4.99 4.99 0 0 0-1.628-.25c-.697 0-1.332.112-1.904.335a3.865 3.865 0 0 0-1.446.966 4.202 4.202 0 0 0-.893 1.509 5.776 5.776 0 0 0-.306 1.909v.587h6.913zM7.404 7.34h4.209c-.057-.794-.271-1.388-.642-1.782-.372-.394-.861-.591-1.467-.591-.578 0-1.053.2-1.424.6-.372.399-.597.99-.676 1.773z" fill="#4b7bec"/>
  </g>
  <path d="M9.084 14.943c-1-.07-1.863-.39-2.569-.955a5.16 5.16 0 0 1-.632-.63c-.61-.755-.956-1.747-.99-2.84l-.01-.293H7.196l.009.246c.03.758.233 1.444.567 1.911.311.436.746.714 1.282.822.21.043.691.039.908-.008a1.98 1.98 0 0 0 1.036-.564c.483-.486.751-1.215.79-2.153l.01-.254H14.112l-.01.277c-.034.996-.314 1.896-.82 2.63a3.585 3.585 0 0 1-.486.578c-.68.676-1.598 1.095-2.652 1.21-.28.03-.796.042-1.059.023zM5.044 8.174c0-.476.011-.673.056-.988.118-.841.422-1.614.865-2.203a3.798 3.798 0 0 1 1.383-1.14c.462-.227.91-.36 1.493-.441.284-.04 1.189-.04 1.469 0 .25.036.52.093.718.152.085.025.165.046.176.046.01 0 .185-.166.387-.369.387-.388.483-.466.653-.524a.917.917 0 0 1 .522 0 .846.846 0 0 1 .476 1.213c-.035.067-.122.168-.298.348l-.248.253.122.13c.39.414.693.95.873 1.546.166.552.207 1.181.101 1.587-.073.28-.236.504-.443.609-.23.116-.58.206-.93.237-.12.011-1.39.017-3.777.017H5.044zm6.57-.914c-.07-.656-.209-1.104-.455-1.476a2.168 2.168 0 0 0-.513-.506c-.576-.374-1.404-.425-2.018-.124-.545.267-.92.77-1.108 1.487a5.118 5.118 0 0 0-.117.656v.053h4.221z" fill="#fff"/>
</svg>
